<svg width="20" height="16" viewBox="0 0 20 16" fill="none" xmlns="http://www.w3.org/2000/svg">
<path d="M1 7H0.96875C0.4375 7 0 7.46875 0 8V12V12.0312C0 12.5625 0.4375 13 0.96875 13H1H2V7H1ZM17 5.5C17 4.125 15.875 3 14.5 3H11V1C11 0.46875 10.5312 0 10 0C9.4375 0 9 0.46875 9 1V3H5.5H5.46875C4.09375 3 3 4.125 3 5.5V14C3 15.125 3.875 16 5 16H15C16.0938 16 16.9688 15.125 17 14V5.5ZM8.25 8V8.03125C8.25 8.71875 7.6875 9.25 7 9.25C6.28125 9.25 5.75 8.71875 5.75 8C5.75 7.3125 6.28125 6.75 7 6.75C7.6875 6.75 8.25 7.3125 8.25 8ZM8 12V13H6V12H8ZM11 12V13H9V12H11ZM14.25 8V8.03125C14.25 8.71875 13.6875 9.25 13 9.25C12.2812 9.25 11.75 8.71875 11.75 8C11.75 7.3125 12.2812 6.75 13 6.75C13.6875 6.75 14.25 7.3125 14.25 8ZM14 12V13H12V12H14ZM20 8C20 7.46875 19.5312 7 19 7H18V13H19C19.5312 13 20 12.5625 20 12.0312V12V8Z" fill="black"/>
</svg>
