<svg width="14" height="15" viewBox="0 0 14 15" fill="none" xmlns="http://www.w3.org/2000/svg">
<path d="M7 0.96875C3.25391 0.96875 0.21875 4.00391 0.21875 7.75C0.21875 11.4961 3.25391 14.5312 7 14.5312C10.7461 14.5312 13.7812 11.4961 13.7812 7.75C13.7812 4.00391 10.7461 0.96875 7 0.96875ZM9.51562 9.52734L8.96875 10.2109C8.88672 10.3203 8.75 10.4023 8.61328 10.4023C8.53125 10.4023 8.42188 10.3477 8.36719 10.293L6.53516 8.92578C6.28906 8.76172 6.125 8.37891 6.125 8.07812V3.8125C6.125 3.59375 6.31641 3.375 6.5625 3.375H7.4375C7.65625 3.375 7.875 3.59375 7.875 3.8125V7.75L9.46094 8.92578C9.54297 9.00781 9.625 9.14453 9.625 9.25391C9.625 9.36328 9.57031 9.47266 9.51562 9.52734Z" fill="black"/>
</svg>
