<svg width="18" height="13" viewBox="0 0 18 13" fill="none" xmlns="http://www.w3.org/2000/svg">
<path d="M2.625 5.875C3.58203 5.875 4.375 5.10938 4.375 4.125C4.375 3.16797 3.58203 2.375 2.625 2.375C1.64062 2.375 0.875 3.16797 0.875 4.125C0.875 5.10938 1.64062 5.875 2.625 5.875ZM14.875 5.875C15.832 5.875 16.625 5.10938 16.625 4.125C16.625 3.16797 15.832 2.375 14.875 2.375C13.8906 2.375 13.125 3.16797 13.125 4.125C13.125 5.10938 13.8906 5.875 14.875 5.875ZM15.75 6.75H14C13.5078 6.75 13.0703 6.96875 12.7422 7.26953C13.8633 7.87109 14.6289 8.96484 14.8203 10.25H16.625C17.0898 10.25 17.5 9.86719 17.5 9.375V8.5C17.5 7.54297 16.707 6.75 15.75 6.75ZM8.75 6.75C10.418 6.75 11.8125 5.38281 11.8125 3.6875C11.8125 2.01953 10.418 0.625 8.75 0.625C7.05469 0.625 5.6875 2.01953 5.6875 3.6875C5.6875 5.38281 7.05469 6.75 8.75 6.75ZM10.8281 7.625H10.6094C10.0352 7.89844 9.40625 8.0625 8.75 8.0625C8.06641 8.0625 7.4375 7.89844 6.86328 7.625H6.64453C4.89453 7.625 3.5 9.04688 3.5 10.7969V11.5625C3.5 12.3008 4.07422 12.875 4.8125 12.875H12.6875C13.3984 12.875 14 12.3008 14 11.5625V10.7969C14 9.04688 12.5781 7.625 10.8281 7.625ZM4.73047 7.26953C4.40234 6.96875 3.96484 6.75 3.5 6.75H1.75C0.765625 6.75 0 7.54297 0 8.5V9.375C0 9.86719 0.382812 10.25 0.875 10.25H2.65234C2.84375 8.96484 3.60938 7.87109 4.73047 7.26953Z" fill="black"/>
</svg>
