<svg width="11" height="11" viewBox="0 0 11 11" fill="none" xmlns="http://www.w3.org/2000/svg">
<path d="M9.95616 8.38934L7.11135 5.66703L9.95616 2.94472C10.292 2.62334 10.292 2.05619 9.95616 1.73481L9.32398 1.12985C8.96838 0.789564 8.39547 0.808469 8.05962 1.12985L5.21481 3.85216L2.37 1.12985C2.0144 0.789564 1.44149 0.808469 1.10564 1.12985L0.47346 1.73481C0.117858 2.0751 0.117858 2.60444 0.47346 2.94472L3.31827 5.66703L0.47346 8.38934C0.117858 8.72963 0.117858 9.25896 0.47346 9.59925L1.10564 10.2042C1.44149 10.5256 2.0144 10.5445 2.37 10.2042L5.21481 7.4819L8.05962 10.2042C8.39547 10.5256 8.96838 10.5445 9.32398 10.2042L9.95616 9.59925C10.292 9.27787 10.292 8.71072 9.95616 8.38934Z" fill="black"/>
</svg>
