<svg width="18" height="19" viewBox="0 0 18 19" fill="none" xmlns="http://www.w3.org/2000/svg">
<path d="M17.5 2.625C17.5 1.60938 16.6406 0.75 15.625 0.75H1.875C0.820312 0.75 0 1.60938 0 2.625V16.375C0 17.4297 0.820312 18.25 1.875 18.25H15.625C16.6406 18.25 17.5 17.4297 17.5 16.375V2.625ZM14.0625 3.25C14.5703 3.25 15 3.67969 15 4.1875V8.5625C15 9.42188 13.9844 9.8125 13.3984 9.22656L12.1484 7.97656L4.49219 15.6328C4.29688 15.8281 4.02344 15.8281 3.82812 15.6328L2.61719 14.4219C2.42188 14.2266 2.42188 13.9531 2.61719 13.7578L10.2734 6.10156L9.02344 4.85156C8.39844 4.26562 8.82812 3.25 9.6875 3.25H14.0625Z" fill="black"/>
</svg>
