<svg width="262" height="262" viewBox="0 0 262 262" fill="none" xmlns="http://www.w3.org/2000/svg">
<rect width="262" height="262" fill="#C4C4C4"/>
<path d="M115.836 180.953C115.992 171.656 117.047 164.312 119 158.922C120.953 153.531 124.938 147.555 130.953 140.992L146.305 125.172C152.867 117.75 156.148 109.781 156.148 101.266C156.148 93.0625 154 86.6562 149.703 82.0469C145.406 77.3594 139.156 75.0156 130.953 75.0156C122.984 75.0156 116.578 77.125 111.734 81.3438C106.891 85.5625 104.469 91.2266 104.469 98.3359H82.7891C82.9453 85.6797 87.4375 75.4844 96.2656 67.75C105.172 59.9375 116.734 56.0312 130.953 56.0312C145.719 56.0312 157.203 60.0156 165.406 67.9844C173.688 75.875 177.828 86.7344 177.828 100.562C177.828 114.234 171.5 127.711 158.844 140.992L146.07 153.648C140.367 159.977 137.516 169.078 137.516 180.953H115.836ZM114.898 218.102C114.898 214.586 115.953 211.656 118.062 209.312C120.25 206.891 123.453 205.68 127.672 205.68C131.891 205.68 135.094 206.891 137.281 209.312C139.469 211.656 140.562 214.586 140.562 218.102C140.562 221.617 139.469 224.547 137.281 226.891C135.094 229.156 131.891 230.289 127.672 230.289C123.453 230.289 120.25 229.156 118.062 226.891C115.953 224.547 114.898 221.617 114.898 218.102Z" fill="white"/>
</svg>
